<svg width="49" height="53" viewBox="0 0 49 53" fill="none" xmlns="http://www.w3.org/2000/svg">
<g clip-path="url(#clip0)">
<path d="M49 0.332155C46.6666 -0.0362801 44.2946 -0.0981874 41.945 0.148027C39.4224 0.415194 35.5224 0.870098 31.5532 3.55981C30.3392 4.37936 26.759 6.87051 24.8726 11.5026C24.1274 13.3078 23.9639 14.9216 23.6658 18.0446C22.9389 25.5866 23.5713 33.9012 23.5713 33.9012C23.7588 35.4656 23.6963 37.0497 23.3859 38.5947C22.8942 40.7102 21.9441 42.6938 20.6017 44.4074C18.116 47.7845 14.4956 50.1666 10.3954 51.1226C13.7185 52.2391 17.1898 52.8608 20.6962 52.9675C23.8439 53.0578 28.9253 53.148 33.8722 50.48C35.6544 49.5371 37.2542 48.2878 38.5974 46.7902C39.6349 45.6031 40.4809 44.2634 41.1053 42.8188C41.7632 41.2772 42.0904 39.7681 42.3121 37.0097C42.498 34.3662 42.5284 31.7141 42.4029 29.067C42.3375 26.3917 42.3593 23.8428 42.4029 18.745C42.4033 15.5077 42.6207 12.2741 43.0536 9.0656C43.3807 6.70082 43.7005 5.32167 44.631 3.9028C45.7156 2.3239 47.2313 1.08519 49 0.332155Z" fill="#ffffff"/>
<path d="M10.3954 48.3607C16.1366 48.3607 20.7907 43.7378 20.7907 38.0351C20.7907 32.3324 16.1366 27.7095 10.3954 27.7095C4.65417 27.7095 0 32.3324 0 38.0351C0 43.7378 4.65417 48.3607 10.3954 48.3607Z" fill="#ffffff"/>
</g>
<defs>
<clipPath id="clip0">
<rect width="49" height="53" fill="white"/>
</clipPath>
</defs>
</svg>
